<?xml version="1.0" encoding="UTF-8"?>
<svg version="1.1" xmlns="http://www.w3.org/2000/svg" width="319" height="317">
<path d="M0 0 C105.27 0 210.54 0 319 0 C319 104.61 319 209.22 319 317 C213.73 317 108.46 317 0 317 C0 212.39 0 107.78 0 0 Z " fill="#F6F6F6" transform="translate(0,0)"/>
<path d="M0 0 C105.27 0 210.54 0 319 0 C319 104.61 319 209.22 319 317 C213.73 317 108.46 317 0 317 C0 212.39 0 107.78 0 0 Z M40.1875 55.1875 C37.237722 59.20267693 35.16076697 63.53631665 33.125 68.0625 C32.8261792 68.72338623 32.5273584 69.38427246 32.21948242 70.06518555 C31.94338135 70.71527588 31.66728027 71.36536621 31.3828125 72.03515625 C31.01760498 72.89185913 31.01760498 72.89185913 30.64501953 73.76586914 C28.30444271 81.87284056 28.84489998 90.52031549 28.83886719 98.87036133 C28.83423182 100.37091695 28.8292062 101.87147141 28.82382202 103.37202454 C28.81076767 107.43001079 28.80426708 111.48798056 28.79981136 115.54598451 C28.79687014 118.08623297 28.79276346 120.62647703 28.78830719 123.16672325 C28.77465236 131.12930555 28.76497513 139.09187765 28.7611053 147.05447084 C28.75662543 156.21935763 28.73907235 165.38409522 28.7101047 174.54893667 C28.68843808 181.65239888 28.67839841 188.75581926 28.67706418 195.85931414 C28.67601998 200.09337444 28.67019424 204.32729409 28.65224457 208.56131935 C28.63567675 212.54640058 28.63365024 216.5312367 28.64238358 220.51634026 C28.64314924 221.97109767 28.63887405 223.42586875 28.62892532 224.88059235 C28.51165146 243.11104103 34.01133816 259.75029822 46.79760742 273.04125977 C57.47492138 283.59052644 71.29704492 291.09031706 86.51208496 291.14717102 C88.48836884 291.15790398 88.48836884 291.15790398 90.50457764 291.16885376 C91.95812965 291.17169375 93.41168191 291.17440551 94.86523438 291.17700195 C96.40151115 291.18327109 97.93778642 291.18991829 99.47406006 291.19691467 C104.51394606 291.21791086 109.5538322 291.22831561 114.59375 291.23828125 C116.33348099 291.24233102 118.07321183 291.246448 119.8129425 291.25063133 C127.99124658 291.26967636 136.1695417 291.28390662 144.34786367 291.2922433 C153.76353424 291.30200156 163.17896884 291.32828698 172.59455633 291.36874419 C179.88737093 291.39899582 187.18011825 291.41372088 194.47299433 291.41702431 C198.82122948 291.41936524 203.16921237 291.4281995 207.51737976 291.45348549 C211.61492133 291.47692905 215.71204748 291.48093482 219.80963898 291.47072411 C221.30387512 291.4702325 222.79813286 291.47644065 224.29230499 291.49028015 C241.97229181 291.64471832 257.8919658 286.51974241 270.83862305 274.23999023 C283.14552729 262.12522168 290.89100282 248.29618998 291.38768005 230.77348328 C291.40834209 228.06361542 291.41345783 225.3568416 291.40405273 222.6472168 C291.40976918 221.14270526 291.41673832 219.63819804 291.42485046 218.13369751 C291.44265878 214.08181372 291.44163666 210.03014794 291.43590808 205.97823691 C291.4327975 202.57910409 291.43892947 199.18001203 291.44494683 195.78088504 C291.45895071 187.75240713 291.45746607 179.72403571 291.44604492 171.69555664 C291.43457454 163.45098945 291.44863062 155.20674799 291.4754414 146.96222371 C291.49769459 139.84925655 291.50421404 132.7363909 291.49836498 125.62339145 C291.49501628 121.39036013 291.49726964 117.15753734 291.51461601 112.92453575 C291.530237 108.93929831 291.52596457 104.95453801 291.50731087 100.96931839 C291.50366608 99.51947042 291.506611 98.06958587 291.51719666 96.61977196 C291.6030159 83.87809191 290.03469685 71.21156177 282.625 60.5 C282.02921143 59.6335083 282.02921143 59.6335083 281.42138672 58.74951172 C280.30595944 57.14860411 279.15438247 55.57304936 278 54 C277.4946875 53.29101562 276.989375 52.58203125 276.46875 51.8515625 C267.34180026 40.12449336 252.14099571 33.25059534 238 30 C232.76469472 29.46703931 227.57229354 29.45059929 222.31835938 29.48242188 C220.79074949 29.47698706 219.26314485 29.46985685 217.73554993 29.46118164 C213.62594046 29.44310654 209.51673729 29.44994955 205.40712166 29.46269798 C201.08239873 29.47290848 196.75770787 29.46341017 192.4329834 29.45715332 C185.17384674 29.44990014 177.9148735 29.4594031 170.65576172 29.47851562 C162.2935398 29.50027991 153.93170815 29.49322688 145.56949568 29.47121 C138.35716677 29.45298924 131.14495455 29.45053013 123.93261003 29.46096468 C119.63930914 29.46716311 115.34619098 29.46813693 111.05290222 29.45481873 C107.01428884 29.44316298 102.97617285 29.45146077 98.93761253 29.47439575 C97.4659679 29.47963146 95.99428053 29.4782586 94.52265358 29.46934509 C72.01409858 29.34570575 54.63739904 38.35078728 40.1875 55.1875 Z " fill="#F7F7F7" transform="translate(0,0)"/>
<path d="M0 0 C1.51920301 -0.00899623 3.03839923 -0.01920871 4.55758667 -0.03053284 C8.65515794 -0.05685429 12.75254083 -0.06405888 16.85018849 -0.0659802 C19.42017421 -0.06812379 21.99011318 -0.07454957 24.5600872 -0.08247185 C33.5545743 -0.11017115 42.5489287 -0.12248479 51.54345703 -0.12011719 C59.88065497 -0.11831856 68.21726828 -0.14991564 76.55431849 -0.19734818 C83.74969393 -0.23680207 90.94488014 -0.25265933 98.14036268 -0.25075096 C102.42114245 -0.24999234 106.70140242 -0.25818842 110.98207283 -0.29028511 C132.92194147 -0.44337254 152.28705155 -0.34209058 170.62475586 13.43579102 C172.20256836 14.58047852 172.20256836 14.58047852 173.81225586 15.74829102 C186.78151206 28.14113583 194.48951159 43.03835054 195.1259613 61.04325867 C195.14636894 63.75650245 195.1462712 66.46407544 195.12646484 69.17675781 C195.1302604 70.68657939 195.13577053 72.19639746 195.14283752 73.70620728 C195.15664491 77.75780046 195.14572919 81.80896199 195.12912631 85.86053061 C195.11513843 90.12697814 195.12175107 94.39340406 195.1252594 98.65986633 C195.1279499 105.81709645 195.11458342 112.97415774 195.09130859 120.13134766 C195.06467562 128.37770275 195.06296583 136.6237764 195.07469696 144.8701598 C195.08551469 152.84451971 195.07925839 160.81877893 195.06514168 168.79313087 C195.05941949 172.16882553 195.05943452 175.54444559 195.06420708 178.92014122 C195.0690164 182.90044006 195.05871357 186.88043471 195.03725243 190.86067581 C195.03173891 192.31177686 195.03116852 193.76290746 195.03620529 195.21401024 C195.09337262 214.0620659 189.92757952 228.62878462 176.83178711 242.26000977 C176.1034668 242.97801758 175.37514648 243.69602539 174.62475586 244.43579102 C173.98924805 245.08161133 173.35374023 245.72743164 172.69897461 246.39282227 C159.92740528 258.52977946 142.87520986 262.05579706 125.85131836 261.95336914 C124.31385642 261.95880382 122.7763997 261.96593396 121.23895264 261.97460938 C117.1024854 261.99268603 112.96642179 261.9858408 108.82994843 261.97309303 C104.47719834 261.96288336 100.12448013 261.97238062 95.77172852 261.9786377 C88.46551382 261.98589111 81.15946147 261.97638729 73.85327148 261.95727539 C65.43651885 261.93551107 57.02015397 261.94256408 48.60341072 261.96458101 C41.34437329 261.98280109 34.08545179 261.98526121 26.82639885 261.97482634 C22.5051527 261.96862754 18.1840881 261.96765513 13.862854 261.98097229 C9.79797696 261.99262703 5.73359414 261.98433202 1.66876984 261.96139526 C0.18744981 261.95615904 -1.29391268 261.95753335 -2.77521515 261.96644592 C-21.56142159 262.06895473 -36.29163892 256.01842588 -49.90649414 243.02954102 C-63.45239121 228.79777574 -67.6923691 212.57423453 -67.6340332 193.4519043 C-67.63674762 191.95120067 -67.64031107 190.45049838 -67.64465332 188.94979858 C-67.65372758 184.89596965 -67.65025324 180.84224317 -67.64389515 176.78841257 C-67.63880748 172.53080387 -67.64353444 168.27320355 -67.64666748 164.01559448 C-67.65029988 156.86544227 -67.64552795 149.71533146 -67.63598633 142.56518555 C-67.62511151 134.32125847 -67.62862321 126.07743041 -67.63963914 117.83350575 C-67.64874271 110.73426411 -67.64998208 103.63505213 -67.6447618 96.53580654 C-67.64165786 92.30515668 -67.64118895 88.07455321 -67.64783478 83.8439064 C-67.65365213 79.86294342 -67.64953183 75.88210684 -67.63804626 71.90115738 C-67.63542263 70.44802052 -67.636125 68.99487285 -67.64057159 67.54174042 C-67.67218869 56.15087066 -67.15968247 45.60635976 -61.81274414 35.37329102 C-61.28874023 34.35150757 -61.28874023 34.35150757 -60.75415039 33.30908203 C-57.47545007 27.17532551 -53.40424564 22.24147984 -48.37524414 17.43579102 C-47.76293945 16.80415039 -47.15063477 16.17250977 -46.51977539 15.52172852 C-33.77793411 3.18740881 -17.06633255 -0.02036075 0 0 Z M-46.37524414 33.43579102 C-52.7666524 41.34095386 -55.46307688 51.70144588 -55.54933167 61.72441101 C-55.56226761 62.99263702 -55.57520355 64.26086304 -55.58853149 65.56752014 C-55.59775064 66.96591085 -55.60680896 68.36430262 -55.61572266 69.76269531 C-55.62854445 71.24160018 -55.64168015 72.72050235 -55.65510559 74.19940186 C-55.77113611 87.71922241 -55.82770246 101.23977175 -55.8718729 114.75999737 C-55.90501747 124.73440072 -55.96440381 134.70788804 -56.05938393 144.68189877 C-56.12406927 151.71575544 -56.15746373 158.74936514 -56.16862243 165.78350765 C-56.17612835 169.97298409 -56.19683681 174.16135317 -56.25164986 178.35050011 C-56.50482095 198.60974971 -56.51981166 215.88087529 -42.81274414 232.18579102 C-41.35954748 233.62908514 -39.88264351 235.04920325 -38.37524414 236.43579102 C-37.80161133 237.01458008 -37.22797852 237.59336914 -36.63696289 238.18969727 C-26.11271422 248.21159517 -12.80461607 249.73764987 0.99853516 249.71044922 C2.45791382 249.71480118 3.91729019 249.71998595 5.37666321 249.72593689 C9.32736755 249.73929013 13.27797599 249.73990937 17.22869849 249.73737359 C20.53589828 249.73630078 23.84307891 249.74119548 27.15027457 249.74597901 C34.96038653 249.75706279 42.7704504 249.75751881 50.58056641 249.75146484 C58.61315669 249.74543362 66.64557142 249.75771695 74.67813176 249.77903491 C81.59391345 249.796708 88.50963958 249.80264307 95.42544299 249.79939717 C99.54719842 249.79759229 103.66882878 249.80013991 107.79056358 249.81411171 C111.67223429 249.82677769 115.55363382 249.82466405 119.43530083 249.81170082 C120.85093023 249.80935394 122.26657924 249.81200102 123.68218613 249.82032394 C140.16269685 249.91014495 155.32175681 246.33235986 167.59350586 234.70532227 C179.06587806 221.88715256 182.9289436 208.74940711 182.9152832 191.98608398 C182.92127407 190.51847494 182.9280809 189.05086903 182.93563843 187.58326721 C182.95325359 183.60977811 182.95799204 179.63637524 182.95927 175.66285086 C182.96069525 173.17468091 182.96497202 170.68653262 182.97026443 168.19836807 C182.98875326 159.50145333 182.99693691 150.80459976 182.99536133 142.10766602 C182.99416179 134.02847318 183.01523017 125.9495483 183.04684865 117.8704232 C183.07309699 110.91301126 183.08372498 103.95568634 183.08245051 96.99822533 C183.08194318 92.85235738 183.08749801 88.70672746 183.10880661 84.56090927 C183.12833273 80.65537653 183.12821672 76.75030527 183.11377335 72.84475517 C183.11170147 71.42147704 183.11628791 69.99816893 183.12849426 68.57494164 C183.25815985 52.39155324 179.01919869 39.18930913 167.93725586 27.18579102 C154.32504953 14.3136658 139.1946871 12.29318785 121.33691406 12.25878906 C119.89871562 12.25251365 118.46051876 12.24586592 117.02232361 12.23887634 C112.32340598 12.21796423 107.6244885 12.20748705 102.92553711 12.19750977 C101.30002514 12.19345761 99.67451334 12.18934056 98.04900169 12.18515968 C90.40998344 12.1661374 82.77097467 12.15189938 75.13193733 12.14354771 C66.3473651 12.13378175 57.56304526 12.10746656 48.77856189 12.06704682 C41.96551287 12.03678565 35.15253584 12.02206947 28.33942097 12.0187667 C24.28073991 12.01642799 20.22232938 12.00762216 16.16372108 11.98230553 C12.34109095 11.95884303 8.51890608 11.95486349 4.69622231 11.96506691 C3.3035737 11.96555797 1.91090176 11.95936637 0.51832199 11.94551086 C-19.25597734 11.7599778 -33.28453606 18.8035603 -46.37524414 33.43579102 Z " fill="#080808" transform="translate(96.375244140625,29.564208984375)"/>
<path d="M0 0 C56.43 0 112.86 0 171 0 C169.02 2.31 167.04 4.62 165 7 C163.73984662 8.58040196 162.48062496 10.16154765 161.22268677 11.74371338 C154.12749531 20.13313751 147.75752403 26.73640663 136.52177238 28.29833603 C130.52175773 28.75040171 124.56881589 28.79564074 118.5546875 28.734375 C115.92883049 28.762504 113.30302012 28.79533391 110.67727661 28.83258057 C105.19759424 28.89414606 99.72267275 28.87290356 94.24316406 28.80664062 C88.67001646 28.74066695 83.1106377 28.78299063 77.5390625 28.9296875 C27.16819588 30.22773475 27.16819588 30.22773475 13.70017433 18.61485672 C8.26344783 13.42994269 3.68080908 7.55014113 0 1 C0 0.67 0 0.34 0 0 Z " fill="#030303" transform="translate(77,82)"/>
<path d="M0 0 C-4.68570406 5.62883299 -9.68479552 10.83578987 -14.875 16 C-15.63941406 16.76828125 -16.40382813 17.5365625 -17.19140625 18.328125 C-20.64347627 21.77433412 -24.10990204 25.14474905 -27.8203125 28.3125 C-33.51939618 33.21882743 -38.72052698 38.65208937 -44 44 C-55.94247568 56.09728555 -55.94247568 56.09728555 -62.296875 61.51953125 C-64.83348025 63.72451609 -67.15170213 66.09511664 -69.5 68.5 C-72.4495266 71.52059953 -75.41558965 74.38301146 -78.625 77.125 C-84.20281103 81.95488925 -89.32171913 87.2513575 -94.5 92.5 C-109.56119625 107.76584531 -109.56119625 107.76584531 -118 114 C-118.19875516 109.14387639 -118.34337321 104.2901499 -118.43945312 99.4309082 C-118.47952358 97.78074889 -118.53400048 96.13087078 -118.60351562 94.48168945 C-119.16622066 80.78230448 -119.16622066 80.78230448 -116.359375 76.49267578 C-114.33159035 74.73504008 -112.29965556 73.37400634 -110 72 C-108.31384218 70.35305515 -106.64429829 68.68873879 -105 67 C-102.19733482 64.12158711 -99.33358026 61.40171018 -96.28710938 58.78710938 C-92.26008028 55.27569739 -88.46991301 51.58330136 -84.71875 47.78125 C-84.06096558 47.11967896 -83.40318115 46.45810791 -82.72546387 45.77648926 C-80.64782726 43.68677265 -78.57349373 41.59382685 -76.5 39.5 C-73.7634185 36.736583 -71.02337737 33.97666278 -68.28125 31.21875 C-67.66954956 30.59875122 -67.05784912 29.97875244 -66.4276123 29.33996582 C-63.30195557 26.19693373 -60.11646544 23.20580825 -56.74707031 20.32397461 C-53.98612228 17.94041785 -51.77169851 15.66941052 -49.765625 12.59765625 C-36.88470672 -4.65081193 -19.501013 -1.73345824 0 0 Z " fill="#060606" transform="translate(190,124)"/>
<path d="M0 0 C15.10767234 -0.3989683 30.21510118 -0.69778615 45.32687378 -0.88080692 C52.34569449 -0.96809151 59.36122396 -1.08682273 66.37792969 -1.2824707 C73.1604273 -1.47149634 79.93951979 -1.56905302 86.7244873 -1.61291313 C89.3019363 -1.64413127 91.87921557 -1.7051009 94.4552002 -1.79741096 C115.63686058 -2.52569901 115.63686058 -2.52569901 123.04199219 3.65164185 C126.49893543 7.05322048 129.50793919 10.69748673 132.28451538 14.67112064 C134.6778023 17.92015969 137.37382682 20.93613129 140 24 C86.54 24 33.08 24 -22 24 C-20.03977983 20.07955967 -18.67571696 18.59463006 -15.4375 15.8125 C-6.69255498 8.76098887 -6.69255498 8.76098887 0 0 Z " fill="#050504" transform="translate(115,219)"/>
<path d="M0 0 C2.60020583 30.49041354 2.60020583 30.49041354 -3.05859375 38.28515625 C-6.04575263 41.49462949 -9.36197464 44.11752022 -12.97460938 46.58886719 C-20.61003357 51.90862995 -26.99637071 58.90306183 -33.5 65.5 C-44.20954289 76.36319486 -44.20954289 76.36319486 -50.03320312 81.25195312 C-51.96407549 82.88395138 -51.96407549 82.88395138 -53.27639771 84.51431274 C-56.15143192 87.80706875 -57.42766012 88.89988538 -61.89404297 89.68115234 C-63.34377163 89.68021414 -64.79374494 89.64699667 -66.2421875 89.5859375 C-67.01055939 89.57744781 -67.77893127 89.56895813 -68.57058716 89.56021118 C-71.00686355 89.52682139 -73.43973735 89.45158362 -75.875 89.375 C-77.5338061 89.34488111 -79.19266449 89.31750866 -80.8515625 89.29296875 C-84.90233778 89.22707938 -88.95059361 89.1236702 -93 89 C-91.90961174 87.91010269 -91.90961174 87.91010269 -90.79719543 86.79818726 C-88.27737886 84.27747721 -85.76038757 81.75400591 -83.24487305 79.22900391 C-78.70517581 74.67328882 -74.16326135 70.11979563 -69.61972332 65.56791115 C-66.88162207 62.82459546 -64.14446426 60.08035193 -61.40942383 57.33398438 C-58.74747534 54.66108928 -56.0830181 51.99071792 -53.41687965 49.32200241 C-52.40943211 48.31272518 -51.40285612 47.3025771 -50.39722252 46.29149246 C-45.31290339 41.18070067 -40.21352261 36.16036191 -34.71516418 31.4937439 C-31.65096349 28.82511828 -28.84089463 25.90199778 -26 23 C-21.75908845 18.70958583 -17.49593815 14.55313905 -12.87890625 10.6640625 C-9.7093595 7.85693794 -6.81083746 4.77820843 -3.8828125 1.72265625 C-2 0 -2 0 0 0 Z " fill="#070606" transform="translate(226,114)"/>
<path d="M0 0 C3.34784108 1.4549511 5.54377373 3.29805491 8.109375 5.87890625 C8.86347656 6.63494141 9.61757812 7.39097656 10.39453125 8.16992188 C11.56048828 9.35424805 11.56048828 9.35424805 12.75 10.5625 C13.54277344 11.35591797 14.33554688 12.14933594 15.15234375 12.96679688 C21 18.85974478 21 18.85974478 21 20 C7.8 20 -5.4 20 -19 20 C-12.25 12.125 -12.25 12.125 -9.5703125 9.47265625 C-9.003125 8.90869141 -8.4359375 8.34472656 -7.8515625 7.76367188 C-7.28179687 7.20228516 -6.71203125 6.64089844 -6.125 6.0625 C-5.23554688 5.17981445 -5.23554688 5.17981445 -4.328125 4.27929688 C-2.88773534 2.85052326 -1.4442033 1.42491868 0 0 Z " fill="#F76210" transform="translate(202,190)"/>
<path d="M0 0 C0.66 0.33 1.32 0.66 2 1 C1.11957031 1.79664063 0.23914063 2.59328125 -0.66796875 3.4140625 C-1.84133256 4.48417029 -3.01449915 5.55449437 -4.1875 6.625 C-4.76564453 7.14707031 -5.34378906 7.66914062 -5.93945312 8.20703125 C-9.63286326 11.58744053 -12.87805543 15.08434071 -16 19 C-16 14.06349214 -12.32693536 11.4052871 -9 8 C-6.06043996 5.26044168 -3.05755103 2.60689158 0 0 Z " fill="#2A2A2B" transform="translate(56,40)"/>
</svg>
